<svg width="120" height="120" viewBox="0 0 120 120" fill="none" xmlns="http://www.w3.org/2000/svg">
<path d="M110 40.9805C110 52.089 107.023 60.6375 96.9409 60.6375C86.8585 60.6375 73.488 52.089 73.488 40.9805C73.488 29.872 86.8585 21 96.9409 21C107.023 21 110 29.872 110 40.9805Z" fill="#FFAFE9"/>
<path d="M9.99989 40.95C9.99989 51.9252 12.9329 60.3711 22.8682 60.3711C32.8035 60.3711 45.9788 51.9252 45.9788 40.95C45.9788 29.9748 32.8035 21.2092 22.8682 21.2092C12.9329 21.2092 9.99989 29.9748 9.99989 40.95Z" fill="#FFAFE9"/>
<path d="M107.276 61.1963C107.276 79.9557 102.079 96.743 59.4376 98.9999C19.9941 96.6302 13.4646 79.9557 13.4646 61.1963C13.4646 42.4369 31.8396 31.0662 59.4376 31.0662C87.0356 31.0662 107.276 42.4369 107.276 61.1963Z" fill="#FFAFE9"/>
<path d="M105.677 40.3844C105.677 49.1198 103.83 55.842 97.5748 55.842C91.3192 55.842 83.0237 49.1198 83.0237 40.3844C83.0237 31.649 91.3192 24.6724 97.5747 24.6724C103.83 24.6724 105.677 31.649 105.677 40.3844Z" fill="#FFE8F9"/>
<path d="M13.4647 40.9132C13.4647 49.3499 15.3549 55.8423 21.7577 55.8423C28.1604 55.8423 36.6511 49.3499 36.6511 40.9132C36.6511 32.4764 28.1604 25.7383 21.7577 25.7383C15.3549 25.7383 13.4647 32.4764 13.4647 40.9132Z" fill="#FFE8F9"/>
<ellipse cx="41.3144" cy="75.7576" rx="25.9021" ry="22.1919" fill="#FFAFE9"/>
<ellipse cx="78.9433" cy="75.7576" rx="25.9021" ry="22.1919" fill="#FFAFE9"/>
<path d="M85.6889 62.3551C85.6889 66.3276 83.1794 67.8303 79.1415 67.8303C75.1037 67.8303 71.8303 64.6099 71.8303 60.6373C71.8303 56.6647 75.1037 53.4443 79.1415 53.4443C83.1794 53.4443 85.6889 58.3825 85.6889 62.3551Z" fill="black"/>
<path d="M34.7854 62.3551C34.7854 66.3276 37.3431 67.8303 41.4586 67.8303C45.5741 67.8303 48.9104 64.6099 48.9104 60.6373C48.9104 56.6647 45.5741 53.4443 41.4586 53.4443C37.3431 53.4443 34.7854 58.3825 34.7854 62.3551Z" fill="black"/>
<path d="M78.2265 84.0024C76.1024 89.7196 75.6298 92.3465 60.7137 89.7196C45.7977 92.192 44.24 89.7196 42.5142 84.0024C42.5142 78.1991 45.1432 73.9578 60.7137 73.9578C76.2843 73.9578 78.2265 78.1991 78.2265 84.0024Z" fill="#FFE8F9"/>
<path d="M70.2313 74.7119C70.2313 79.0523 65.987 84.6143 60.541 84.6143C55.095 84.6143 50.5095 79.0523 50.5095 74.7119C50.5095 70.3715 55.095 68.8962 60.541 68.8962C65.987 68.8962 70.2313 70.3715 70.2313 74.7119Z" fill="#FF6DD6"/>
</svg>
