<svg width="27" height="24" viewBox="0 0 27 24" fill="none" xmlns="http://www.w3.org/2000/svg">
<path d="M13.2914 7.57895L17.1818 11.5705V11.3684C17.1818 10.3634 16.7939 9.39952 16.1034 8.68886C15.413 7.97819 14.4765 7.57895 13.5 7.57895H13.2914ZM8.01409 8.58947L9.91636 10.5474C9.855 10.8126 9.81818 11.0779 9.81818 11.3684C9.81818 12.3735 10.2061 13.3373 10.8966 14.048C11.587 14.7586 12.5235 15.1579 13.5 15.1579C13.77 15.1579 14.04 15.12 14.2977 15.0568L16.2 17.0147C15.3777 17.4316 14.4695 17.6842 13.5 17.6842C11.8725 17.6842 10.3117 17.0188 9.16094 15.8344C8.01014 14.6499 7.36364 13.0435 7.36364 11.3684C7.36364 10.3705 7.60909 9.43579 8.01409 8.58947ZM1.22727 1.60421L4.02545 4.48421L4.57773 5.05263C2.55273 6.69474 0.957273 8.84211 0 11.3684C2.12318 16.9137 7.36364 20.8421 13.5 20.8421C15.4023 20.8421 17.2186 20.4632 18.8755 19.7811L19.4032 20.3116L22.9868 24L24.5455 22.3958L2.78591 0M13.5 5.05263C15.1275 5.05263 16.6883 5.71804 17.8391 6.90248C18.9899 8.08692 19.6364 9.69337 19.6364 11.3684C19.6364 12.1768 19.4768 12.96 19.1945 13.6674L22.7905 17.3684C24.6314 15.7895 26.1041 13.7179 27 11.3684C24.8768 5.82316 19.6364 1.89474 13.5 1.89474C11.7818 1.89474 10.1373 2.21053 8.59091 2.77895L11.2541 5.49474C11.9536 5.21684 12.7023 5.05263 13.5 5.05263Z" fill="black"/>
</svg>
