<svg width="390" height="48" viewBox="0 0 390 48" fill="none" xmlns="http://www.w3.org/2000/svg">
<rect width="390" height="48" fill="white"/>
<path d="M32.9401 17.88L31.0601 16L23.0601 24L31.0601 32L32.9401 30.12L26.8334 24L32.9401 17.88Z" fill="black"/>
<path d="M167.624 17.848H168.696V20.2C168.696 23.256 166.856 26.328 164.552 27.464L163.784 26.408C165.88 25.416 167.624 22.696 167.624 20.2V17.848ZM167.88 17.848H168.952V20.2C168.952 22.648 170.696 25.144 172.824 26.056L172.072 27.112C169.736 26.024 167.88 23.208 167.88 20.2V17.848ZM164.264 17.256H172.344V18.376H164.264V17.256ZM174.296 15.784H175.624V30.248H174.296V15.784ZM179.357 16.824H180.685V22.936H179.357V16.824ZM179.357 22.52H180.509C182.573 22.52 184.733 22.376 187.101 21.896L187.261 22.984C184.829 23.496 182.653 23.64 180.509 23.64H179.357V22.52ZM188.557 15.8H189.885V26.248H188.557V15.8ZM189.469 20.072H192.029V21.208H189.469V20.072ZM180.925 28.84H190.397V29.928H180.925V28.84ZM180.925 25.224H182.253V29.352H180.925V25.224ZM204.184 19H208.552V20.104H204.184V19ZM204.184 23.576H208.552V24.68H204.184V23.576ZM201.528 16.888C203.624 16.888 205.128 18.856 205.128 21.928C205.128 25.016 203.624 26.984 201.528 26.984C199.416 26.984 197.928 25.016 197.928 21.928C197.928 18.856 199.416 16.888 201.528 16.888ZM201.528 18.088C200.136 18.088 199.176 19.592 199.176 21.928C199.176 24.28 200.136 25.816 201.528 25.816C202.92 25.816 203.88 24.28 203.88 21.928C203.88 19.592 202.92 18.088 201.528 18.088ZM208.264 15.768H209.576V30.264H208.264V15.768ZM220.253 19.528H223.517V20.632H220.253V19.528ZM223.101 15.784H224.429V24.408H223.101V15.784ZM219.677 24.84C222.653 24.84 224.493 25.848 224.493 27.544C224.493 29.256 222.653 30.232 219.677 30.232C216.685 30.232 214.845 29.256 214.845 27.544C214.845 25.848 216.685 24.84 219.677 24.84ZM219.677 25.88C217.501 25.88 216.173 26.488 216.173 27.544C216.173 28.584 217.501 29.192 219.677 29.192C221.853 29.192 223.181 28.584 223.181 27.544C223.181 26.488 221.853 25.88 219.677 25.88ZM216.221 17.24H217.309V18.408C217.309 21.08 215.677 23.368 213.277 24.264L212.589 23.208C214.733 22.424 216.221 20.488 216.221 18.408V17.24ZM216.477 17.24H217.549V18.408C217.549 20.28 218.957 22.072 221.053 22.808L220.381 23.864C218.029 23.016 216.477 20.84 216.477 18.408V17.24ZM212.989 16.84H220.717V17.928H212.989V16.84Z" fill="black"/>
</svg>
