<svg width="305" height="86" viewBox="0 0 305 86" fill="none" xmlns="http://www.w3.org/2000/svg">
<path d="M11.1155 25.8204C10.1071 25.9401 9.19253 26 8.37177 26C5.90949 26 3.65825 25.5571 1.61807 24.6713L0.0351755 23.953C0.0117252 23.9291 0 23.8692 0 23.7735L0.070351 22.9834C0.117252 22.6483 0.164152 22.4088 0.211053 22.2652C0.211053 21.93 0.222778 21.6786 0.246229 21.5111C0.246229 21.0562 0.293129 20.6372 0.38693 20.2541C0.38693 19.9669 0.398656 19.7873 0.422106 19.7155C0.445556 19.6436 0.457282 19.5838 0.457282 19.5359C0.480732 19.488 0.492457 19.488 0.492457 19.5359C1.73533 19.9908 2.69679 20.2661 3.37685 20.3619C4.19761 20.5295 5.13562 20.6133 6.19089 20.6133C6.6599 20.6133 7.02338 20.2661 7.28133 19.5718C7.35168 19.4521 7.43376 19.1768 7.52756 18.7459C7.64481 18.267 7.70344 18.0276 7.70344 18.0276C7.72689 17.7882 7.73861 17.3333 7.73861 16.663C7.73861 15.6335 7.76206 14.7716 7.80896 14.0773C7.83241 13.5985 7.84414 12.9162 7.84414 12.0304L7.87931 10.3785V8.83425L7.84414 1.43646C7.84414 1.29282 7.87931 1.19705 7.94967 1.14917C8.04347 1.10129 8.17244 1.07735 8.3366 1.07735L11.9948 1.04144H18.9244C19.2762 1.04144 19.5459 1.06538 19.7335 1.11326C19.9445 1.16114 20.1204 1.26888 20.2611 1.43646C20.4018 1.67588 20.4839 1.93923 20.5073 2.22652C20.5777 2.94475 20.6128 3.44751 20.6128 3.73481V11.0249C20.5894 11.0727 20.5777 11.1685 20.5777 11.3122C20.5777 11.4558 20.5659 11.5755 20.5425 11.6713C20.519 11.8149 20.5073 11.9586 20.5073 12.1022C20.5308 12.2459 20.5308 12.3895 20.5073 12.5332C20.4839 12.7247 20.4721 13 20.4721 13.3591V14.0773L20.437 14.4006C20.437 15.3582 20.4135 16.1602 20.3666 16.8066C20.3432 17.453 20.2611 18.0994 20.1204 18.7459C19.7686 20.4217 19.112 21.7145 18.1506 22.6243C17.0249 23.6777 15.5007 24.5516 13.5777 25.2459C12.5694 25.5331 11.7486 25.7247 11.1155 25.8204Z" fill="#FF6DD6"/>
<path d="M31.4205 25.4972C30.4825 25.5451 29.6852 25.5212 29.0286 25.4254C28.4892 25.3057 27.9968 25.1381 27.5512 24.9227C27.1057 24.7072 26.6953 24.372 26.3201 23.9171C25.5697 22.9595 25.0655 21.7026 24.8075 20.1464C24.6199 18.8775 24.5496 17.489 24.5965 15.9807V14.4006C24.5965 14.1851 24.6082 14.0175 24.6316 13.8978V12.174L24.7372 11.9227C24.7372 11.8987 24.7372 11.8628 24.7372 11.8149C24.7606 11.767 24.7724 11.6832 24.7724 11.5635C24.8427 10.7017 24.8779 10.0074 24.8779 9.48066L24.9482 8.15193C24.9717 7.55341 24.9834 6.85912 24.9834 6.06906C24.9834 5.75783 24.9717 5.54236 24.9482 5.42265C24.9013 5.13536 24.8779 4.90792 24.8779 4.74033C24.8779 4.38122 25.2414 4.20166 25.9683 4.20166H26.4608C26.7422 4.20166 26.9298 4.17772 27.0236 4.12983L31.315 4.20166C31.315 4.20166 31.3267 4.2256 31.3502 4.27348C31.3971 4.29742 31.4322 4.30939 31.4557 4.30939L31.7371 4.20166C32.9565 4.20166 33.7421 4.32136 34.0939 4.56077C34.3284 4.72836 34.4925 4.97974 34.5863 5.31492C34.7036 5.65009 34.7622 6.10497 34.7622 6.67956C34.7622 7.06262 34.7856 7.58932 34.8325 8.25967C34.8794 8.59484 34.9029 9.12155 34.9029 9.83978V10.1989C34.856 10.8932 34.8091 12.0304 34.7622 13.6105L34.727 15.3343V16.8785C34.6801 17.1657 34.6567 17.5488 34.6567 18.0276V19.105C34.6332 19.4401 34.6801 19.907 34.7974 20.5055C34.9146 20.6971 35.0201 20.7928 35.1139 20.7928C35.2547 20.7928 35.7823 20.6133 36.6968 20.2541L37.5411 19.8232C37.7756 19.7274 37.8928 19.6317 37.8928 19.5359V7.721C37.8225 7.21823 37.7873 6.8232 37.7873 6.53591C37.7638 6.41621 37.7521 6.23665 37.7521 5.99724V5.09945C37.7521 4.81216 37.8107 4.60866 37.928 4.48895C37.9749 4.41713 38.0921 4.38122 38.2797 4.38122C38.3266 4.38122 38.3735 4.40516 38.4204 4.45304C38.4674 4.47698 38.4908 4.51289 38.4908 4.56077V4.6326C38.7253 4.53683 39.2295 4.45304 40.0033 4.38122C40.6365 4.30939 41.34 4.27348 42.1139 4.27348H44.2244L47.9178 4.38122C47.9647 4.38122 47.9999 4.39319 48.0234 4.41713C48.0703 4.44107 48.0937 4.46501 48.0937 4.48895C48.1172 4.48895 48.1289 4.50092 48.1289 4.52486C48.1289 4.5488 48.1289 4.56077 48.1289 4.56077V4.74033C48.1054 4.74033 48.0937 4.77624 48.0937 4.84807L48.2696 4.81215C48.293 4.76427 48.3282 4.74033 48.3751 4.74033C48.4455 4.74033 48.4806 4.80018 48.4806 4.91989C48.4806 9.10958 48.4572 12.593 48.4103 15.3702C48.3868 18.1234 48.293 20.9125 48.1289 23.7376C48.1289 23.8573 48.0351 24.0368 47.8475 24.2762C47.7537 24.3959 47.6716 24.4917 47.6013 24.5635C47.5778 24.6114 47.5426 24.6473 47.4957 24.6713C47.4488 24.6952 47.4137 24.7192 47.3902 24.7431C47.3667 24.7192 47.2847 24.6952 47.144 24.6713C47.0033 24.6234 46.886 24.5994 46.7922 24.5994L46.6867 24.6713C46.6398 24.7192 46.5929 24.7431 46.546 24.7431C45.608 24.9107 44.1306 24.9945 42.1139 24.9945H40.5662C39.9799 24.9945 39.464 24.9466 39.0184 24.8508C38.8543 24.7311 38.6784 24.4319 38.4908 23.953C38.4674 23.7855 38.4204 23.6418 38.3501 23.5221C38.3032 23.4024 38.2446 23.3425 38.1742 23.3425C37.9866 23.3425 37.6935 23.4742 37.2948 23.7376C37.2479 23.7855 37.1776 23.8453 37.0838 23.9171C37.0134 23.965 36.9431 24.0249 36.8727 24.0967C36.6851 24.2403 36.5561 24.36 36.4858 24.4558C35.8526 24.8149 35.1022 25.0783 34.2346 25.2459C33.6483 25.3895 33.1089 25.4613 32.6165 25.4613C32.0771 25.4613 31.6785 25.4733 31.4205 25.4972Z" fill="#FF6DD6"/>
<path d="M56.5641 25.6768L55.7551 25.5331C54.9812 25.4134 54.3364 25.2698 53.8204 25.1022C53.539 25.0783 53.2928 24.9945 53.0818 24.8508C52.8942 24.779 52.7769 24.6832 52.73 24.5635L51.9562 20.1105V19.9309C51.9562 19.7634 51.9679 19.6436 51.9913 19.5718C52.0382 19.4761 52.1203 19.4162 52.2376 19.3923C53.7618 19.9908 55.2626 20.2901 56.74 20.2901C57.209 20.2901 57.5725 20.302 57.8305 20.326C58.7216 20.326 59.3665 20.2063 59.7651 19.9669C59.9762 19.8232 60.0817 19.6197 60.0817 19.3564C60.0817 18.9733 59.9644 18.6621 59.7299 18.4227C59.4954 18.1593 59.1554 17.9319 58.7098 17.7403L57.5842 17.3094C57.2559 17.2376 56.8807 17.1059 56.4586 16.9144C56.4586 16.8904 56.4469 16.8785 56.4234 16.8785C56.4 16.8545 56.3765 16.8186 56.3531 16.7707C56.2593 16.7468 56.06 16.6271 55.7551 16.4116L55.544 16.3039C55.591 16.3039 55.6144 16.2919 55.6144 16.268C55.6144 16.244 55.5792 16.2201 55.5089 16.1961C55.4385 16.1483 55.2978 16.0764 55.0868 15.9807C54.8992 15.861 54.735 15.7293 54.5943 15.5856C54.3833 15.4659 54.2777 15.3223 54.2777 15.1547V14.9751C53.6915 14.9751 53.1873 14.3527 52.7652 13.1077C52.4134 11.8389 52.2376 10.9411 52.2376 10.4144C52.2376 8.18785 53.1756 6.47606 55.0516 5.27901C56.5759 4.29742 58.6747 3.63904 61.348 3.30387C63.0833 3.11234 65.2408 3.01658 67.8203 3.01658C68.1486 3.13628 68.4066 3.2081 68.5942 3.23205C69.0163 3.25599 69.2977 3.39963 69.4384 3.66298C69.5087 3.78269 69.5674 4.0221 69.6143 4.38122C69.6846 4.76427 69.755 5.87753 69.8253 7.721C69.8722 7.76888 69.8957 7.8407 69.8957 7.93646C69.8957 8.12799 69.6377 8.28361 69.1218 8.40332C68.559 8.47514 68.1955 8.51105 68.0314 8.51105L67.2223 8.61879C66.3078 8.73849 65.7098 8.82228 65.4284 8.87017C64.4669 9.03775 63.7986 9.33702 63.4234 9.76796C63.1889 10.0552 63.0716 10.3545 63.0716 10.6657C63.0716 10.8333 63.0951 10.965 63.142 11.0608C63.1889 11.1565 63.3061 11.2643 63.4937 11.384C63.7048 11.5037 64.3145 11.8029 65.3228 12.2818C66.4016 12.7606 67.4803 13.3831 68.559 14.1492C69.4735 14.7956 70.1302 15.6575 70.5288 16.7348C70.7399 17.1897 70.8454 17.7882 70.8454 18.5304C70.8454 19.2007 70.7633 19.7753 70.5992 20.2541C69.9895 21.8343 68.8404 23.1271 67.152 24.1326C66.3547 24.6114 65.5222 24.9825 64.6545 25.2459C63.7868 25.5331 62.9544 25.6768 62.157 25.6768L56.9862 25.7845L56.5641 25.6768Z" fill="#FF6DD6"/>
<path d="M78.764 25.0663C78.553 24.7311 78.4123 24.1206 78.3419 23.2348C78.2481 22.4448 78.2012 21.2956 78.2012 19.7873L78.2364 15.837C78.2598 14.8794 78.2716 13.3591 78.2716 11.2762L78.166 11.1685H74.6836C74.1677 11.1685 73.8277 10.57 73.6636 9.37293C73.5698 8.72652 73.5229 7.78085 73.5229 6.53591V6.06906C73.5698 5.90147 73.5932 5.63812 73.5932 5.27901V4.56077L73.6284 4.27348L73.7691 4.12983L74.4022 4.16575H75.1058C76.1376 4.16575 76.9232 4.15378 77.4625 4.12983H84.6031C84.908 4.15378 85.3418 4.16575 85.9046 4.16575H86.784C86.8778 4.11786 87.0303 4.09392 87.2413 4.09392C87.4055 4.04604 87.5579 4.0221 87.6986 4.0221C88.1441 4.0221 88.4842 4.04604 88.7187 4.09392C89.1877 4.1418 89.5394 4.16575 89.7739 4.16575L90.6885 4.12983H92.0603C92.7639 4.12983 93.2446 4.1418 93.5025 4.16575L93.995 4.20166C94.0185 4.2256 94.0536 4.26151 94.1005 4.30939C94.1474 4.33333 94.1709 4.35728 94.1709 4.38122V10.4862C94.1709 10.6298 94.0888 10.7855 93.9247 10.953C93.784 11.1206 93.6432 11.2284 93.5025 11.2762C92.7287 11.1087 91.7203 11.0249 90.4774 11.0249H89.1408C88.789 11.0249 88.5545 11.4797 88.4373 12.3895C88.3904 12.6529 88.3669 13.0359 88.3669 13.5387V14.616C88.3669 15.0948 88.3786 15.454 88.4021 15.6934V16.6989C88.4021 17.6805 88.3552 18.5902 88.2614 19.4282C88.2145 20.0506 88.191 20.5055 88.191 20.7928C88.1441 21.0801 88.1207 21.4751 88.1207 21.9779C88.1207 22.6961 88.0972 23.2947 88.0503 23.7735C88.0269 24.5157 87.7572 24.9107 87.2413 24.9586C86.6785 25.0304 86.3502 25.0663 86.2564 25.0663H78.764Z" fill="#FF6DD6"/>
<path d="M107.478 25.7845C105.649 25.7845 104.008 25.3536 102.554 24.4917C100.912 23.6777 99.564 22.337 98.5087 20.4696C97.3362 18.3628 96.75 15.8729 96.75 13C96.75 10.965 97.1017 9.13352 97.8052 7.50553C98.5087 5.87753 99.5171 4.50092 100.83 3.37569C102.12 2.2744 103.633 1.43647 105.368 0.86188C107.103 0.287293 108.991 0 111.031 0C114.033 0 117.128 0.778085 120.318 2.33425L118.946 8.43923C118.782 8.39135 118.582 8.33149 118.348 8.25967C118.137 8.18785 117.89 8.11602 117.609 8.0442C116.319 7.70902 115.37 7.49356 114.76 7.39779C114.197 7.30203 113.74 7.25414 113.388 7.25414C111.911 7.25414 110.785 7.66114 110.011 8.47514C109.097 9.40884 108.639 10.977 108.639 13.1796C108.639 15.1906 108.932 16.6271 109.519 17.489C110.011 18.3029 110.738 18.7099 111.7 18.7099C112.309 18.7099 113.013 18.5424 113.81 18.2072C113.81 17.8241 113.787 17.2495 113.74 16.4834L113.705 15.6934C113.681 15.1427 113.669 14.3287 113.669 13.2514V12.2818C113.669 12.0663 113.705 11.9227 113.775 11.8508C113.845 11.7551 113.974 11.7072 114.162 11.7072C114.232 11.7311 114.432 11.7431 114.76 11.7431H118.488C119.591 11.7431 120.318 11.7311 120.669 11.7072C121.302 11.7072 121.713 11.7192 121.9 11.7431C122.205 11.8149 122.405 11.9346 122.498 12.1022C122.616 12.2459 122.674 12.4853 122.674 12.8204C122.674 12.9401 122.686 13.0479 122.709 13.1436V18.9254C122.686 19.0212 122.663 19.1289 122.639 19.2486C122.616 19.3683 122.604 19.5 122.604 19.6436V19.8232C122.604 21.3315 122.581 22.3849 122.534 22.9834C122.487 23.965 122.405 24.5875 122.287 24.8508C121.678 24.8508 121.22 24.8748 120.916 24.9227L120.142 24.9586H120.036C119.825 24.9586 119.708 24.9466 119.684 24.9227C119.661 24.8987 119.637 24.8867 119.614 24.8867C119.614 24.8628 119.614 24.8508 119.614 24.8508H119.509C119.485 24.8748 119.462 24.8987 119.438 24.9227C119.438 24.9466 119.438 24.9586 119.438 24.9586H114.971C114.901 24.9825 114.807 24.9945 114.689 24.9945C114.596 24.9945 114.514 24.9227 114.443 24.779C114.279 24.3481 114.185 23.8333 114.162 23.2348C114.115 22.9475 114.068 22.5285 114.021 21.9779C113.81 23.1989 113.071 24.1446 111.805 24.8149C110.656 25.4613 109.214 25.7845 107.478 25.7845Z" fill="#FF6DD6"/>
<path d="M139.774 25.8204C136.983 25.8204 134.779 25.593 133.161 25.1381C130.91 24.5396 129.198 23.4263 128.025 21.7983C126.665 19.8591 125.985 17.1657 125.985 13.7182C125.985 11.2523 126.255 9.15746 126.794 7.4337C127.334 5.70995 128.166 4.29742 129.292 3.19613C130.417 2.09484 131.86 1.29282 133.618 0.790056C135.401 0.263352 137.57 0 140.126 0C142.119 0 143.995 0.311234 145.754 0.933702C147.911 1.72376 149.588 2.93278 150.784 4.56077C152.261 6.5 153 9.04972 153 12.2099C153 15.8969 152.461 18.7698 151.382 20.8287C150.303 22.7201 148.744 24.0608 146.704 24.8508C145.039 25.4972 142.729 25.8204 139.774 25.8204ZM139.493 22.337C139.774 22.337 139.997 22.1575 140.161 21.7983C140.513 21.0322 140.759 19.8232 140.9 18.1713C141.04 16.663 141.111 15.2385 141.111 13.8978V11.5635C141.111 10.5101 141.04 9.22928 140.9 7.721C140.759 6.093 140.513 4.86004 140.161 4.0221C139.973 3.6151 139.751 3.4116 139.493 3.4116C138.977 3.4116 138.601 3.91437 138.367 4.91989C138.132 6.30847 138.015 7.56538 138.015 8.69061C137.945 9.64825 137.91 11.1446 137.91 13.1796C137.91 14.5442 137.945 15.6694 138.015 16.5553C138.015 17.6805 138.132 18.9853 138.367 20.4696C138.601 21.7146 138.977 22.337 139.493 22.337Z" fill="#FF6DD6"/>
<path d="M29.745 37.785H33.525V78.51H29.745V37.785ZM32.49 54.3H40.005V57.405H32.49V54.3ZM19.35 42.195H22.995C22.995 53.76 17.685 64.2 4.545 70.815L2.475 67.935C13.725 62.22 19.35 53.535 19.35 42.78V42.195ZM4.365 42.195H21.285V45.255H4.365V42.195ZM73.2115 37.83H76.9915V59.655H73.2115V37.83ZM50.7565 61.68H54.4465V66.63H73.3015V61.68H76.9915V77.97H50.7565V61.68ZM54.4465 69.6V74.955H73.3015V69.6H54.4465ZM55.1665 39.765C61.3315 39.765 65.7415 43.59 65.7415 49.125C65.7415 54.705 61.3315 58.53 55.1665 58.53C49.0015 58.53 44.5465 54.705 44.5465 49.125C44.5465 43.59 49.0015 39.765 55.1665 39.765ZM55.1665 42.87C51.1165 42.87 48.1915 45.435 48.1915 49.125C48.1915 52.815 51.1165 55.38 55.1665 55.38C59.2165 55.38 62.1415 52.815 62.1415 49.125C62.1415 45.435 59.2165 42.87 55.1665 42.87ZM112.583 37.83H116.318V78.51H112.583V37.83ZM115.418 54.525H122.978V57.675H115.418V54.525ZM84.818 44.31H108.803V47.37H84.818V44.31ZM96.968 50.745C102.728 50.745 106.868 54.615 106.868 60.105C106.868 65.595 102.728 69.465 96.968 69.465C91.253 69.465 87.068 65.595 87.068 60.105C87.068 54.615 91.253 50.745 96.968 50.745ZM96.968 53.85C93.278 53.85 90.623 56.415 90.623 60.105C90.623 63.75 93.278 66.36 96.968 66.36C100.658 66.36 103.313 63.75 103.313 60.105C103.313 56.415 100.658 53.85 96.968 53.85ZM95.033 38.325H98.768V45.705H95.033V38.325ZM156.049 37.83H159.784V78.51H156.049V37.83ZM144.124 42.195H147.814C147.814 53.985 142.504 64.29 128.914 70.95L126.934 67.935C138.679 62.265 144.124 53.625 144.124 42.825V42.195ZM128.779 42.195H145.744V45.255H128.779V42.195Z" fill="black"/>
</svg>
