<svg width="305" height="84" viewBox="0 0 305 84" fill="none" xmlns="http://www.w3.org/2000/svg">
<path d="M17.3634 39.7238C15.7882 39.9079 14.3596 40 13.0775 40C9.23116 40 5.71453 39.3186 2.52758 37.9558L0.0549474 36.8508C0.0183158 36.814 0 36.7219 0 36.5746L0.109895 35.3591C0.183158 34.8435 0.256421 34.4751 0.329684 34.2541C0.329684 33.7385 0.348 33.3517 0.384632 33.0939C0.384632 32.3941 0.457895 31.7495 0.604421 31.1602C0.604421 30.7182 0.622737 30.442 0.659368 30.3315C0.696 30.221 0.714316 30.1289 0.714316 30.0552C0.750947 29.9816 0.769263 29.9816 0.769263 30.0552C2.71074 30.7551 4.21263 31.1786 5.27495 31.326C6.55705 31.5838 8.02232 31.7127 9.67074 31.7127C10.4034 31.7127 10.9712 31.1786 11.3741 30.1105C11.484 29.9263 11.6122 29.5028 11.7587 28.8398C11.9419 28.1031 12.0335 27.7348 12.0335 27.7348C12.0701 27.3665 12.0884 26.6667 12.0884 25.6354C12.0884 24.0516 12.1251 22.7256 12.1983 21.6575C12.2349 20.9208 12.2533 19.8711 12.2533 18.5083L12.3082 15.9669V13.5912L12.2533 2.20995C12.2533 1.98895 12.3082 1.84162 12.4181 1.76796C12.5646 1.69429 12.7661 1.65746 13.0225 1.65746L18.7371 1.60221H29.5617C30.1112 1.60221 30.5324 1.63904 30.8255 1.71271C31.1552 1.78637 31.4299 1.95212 31.6497 2.20995C31.8695 2.57827 31.9977 2.98343 32.0343 3.42542C32.1442 4.53039 32.1992 5.30387 32.1992 5.74586V16.9613C32.1625 17.035 32.1442 17.1823 32.1442 17.4033C32.1442 17.6243 32.1259 17.8085 32.0893 17.9558C32.0526 18.1768 32.0343 18.3978 32.0343 18.6188C32.0709 18.8398 32.0709 19.0608 32.0343 19.2818C31.9977 19.5764 31.9794 20 31.9794 20.5525V21.6575L31.9244 22.1547C31.9244 23.628 31.8878 24.8619 31.8145 25.8564C31.7779 26.8508 31.6497 27.8453 31.4299 28.8398C30.8804 31.418 29.8547 33.407 28.3528 34.8066C26.5945 36.4273 24.2135 37.7716 21.2097 38.8398C19.6345 39.2818 18.3524 39.5764 17.3634 39.7238Z" fill="white"/>
<path d="M49.0817 39.2265C47.6165 39.3002 46.371 39.2633 45.3453 39.116C44.5028 38.9319 43.7335 38.674 43.0375 38.3425C42.3415 38.0111 41.7005 37.4954 41.1144 36.7956C39.9422 35.3223 39.1546 33.3886 38.7516 30.9945C38.4586 29.0424 38.3487 26.9061 38.4219 24.5856V22.1547C38.4219 21.8232 38.4403 21.5654 38.4769 21.3812V18.7293L38.6417 18.3425C38.6417 18.3057 38.6417 18.2505 38.6417 18.1768C38.6784 18.1031 38.6967 17.9742 38.6967 17.7901C38.8066 16.4641 38.8615 15.3959 38.8615 14.5856L38.9714 12.5414C39.008 11.6206 39.0264 10.5525 39.0264 9.33702C39.0264 8.8582 39.008 8.5267 38.9714 8.34254C38.8982 7.90055 38.8615 7.55064 38.8615 7.29282C38.8615 6.74033 39.4293 6.46409 40.5649 6.46409H41.3342C41.7737 6.46409 42.0668 6.42726 42.2133 6.35359L48.9169 6.46409C48.9169 6.46409 48.9352 6.50092 48.9718 6.57459C49.0451 6.61142 49.1 6.62983 49.1367 6.62983L49.5763 6.46409C51.4811 6.46409 52.7083 6.64825 53.2577 7.01658C53.6241 7.2744 53.8805 7.66114 54.027 8.1768C54.2102 8.69245 54.3017 9.39227 54.3017 10.2762C54.3017 10.8656 54.3384 11.6759 54.4116 12.7072C54.4849 13.2228 54.5215 14.0331 54.5215 15.1381V15.6906C54.4483 16.7587 54.375 18.5083 54.3017 20.9392L54.2468 23.5912V25.9669C54.1735 26.4088 54.1369 26.9982 54.1369 27.7348V29.3923C54.1003 29.9079 54.1735 30.6262 54.3567 31.547C54.5398 31.8416 54.7047 31.9889 54.8512 31.9889C55.071 31.9889 55.8952 31.7127 57.3238 31.1602L58.6426 30.4972C59.0089 30.3499 59.192 30.2026 59.192 30.0552V11.8785C59.0822 11.105 59.0272 10.4972 59.0272 10.0553C58.9906 9.87109 58.9723 9.59484 58.9723 9.22652V7.8453C58.9723 7.40332 59.0638 7.09024 59.247 6.90608C59.3203 6.79558 59.5034 6.74033 59.7965 6.74033C59.8697 6.74033 59.943 6.77716 60.0163 6.85083C60.0895 6.88766 60.1262 6.94291 60.1262 7.01658V7.12707C60.4925 6.97974 61.2801 6.85083 62.4889 6.74033C63.4779 6.62984 64.5769 6.57459 65.7857 6.57459H69.0826L74.8521 6.74033C74.9253 6.74033 74.9803 6.75875 75.0169 6.79558C75.0901 6.83241 75.1268 6.86924 75.1268 6.90608C75.1634 6.90608 75.1817 6.92449 75.1817 6.96133C75.1817 6.99816 75.1817 7.01658 75.1817 7.01658V7.29282C75.1451 7.29282 75.1268 7.34807 75.1268 7.45857L75.4015 7.40331C75.4382 7.32965 75.4931 7.29282 75.5664 7.29282C75.6763 7.29282 75.7312 7.3849 75.7312 7.56906C75.7312 14.0147 75.6946 19.3738 75.6213 23.6464C75.5847 27.8821 75.4382 32.1731 75.1817 36.5193C75.1817 36.7035 75.0352 36.9797 74.7421 37.3481C74.5956 37.5322 74.4674 37.6796 74.3575 37.7901C74.3209 37.8637 74.2659 37.919 74.1927 37.9558C74.1194 37.9926 74.0645 38.0295 74.0278 38.0663C73.9912 38.0295 73.863 37.9926 73.6432 37.9558C73.4234 37.8821 73.2403 37.8453 73.0937 37.8453L72.9289 37.9558C72.8556 38.0295 72.7824 38.0663 72.7091 38.0663C71.2438 38.3241 68.9361 38.453 65.7857 38.453H63.3681C62.4523 38.453 61.6464 38.3794 60.9504 38.232C60.6939 38.0479 60.4192 37.5875 60.1262 36.8508C60.0895 36.593 60.0163 36.372 59.9064 36.1878C59.8331 36.0037 59.7415 35.9116 59.6316 35.9116C59.3386 35.9116 58.8807 36.1142 58.2579 36.5193C58.1847 36.593 58.0748 36.6851 57.9283 36.7956C57.8184 36.8692 57.7085 36.9613 57.5986 37.0718C57.3055 37.2928 57.104 37.477 56.9942 37.6243C56.0051 38.1768 54.8329 38.582 53.4775 38.8398C52.5617 39.0608 51.7192 39.1713 50.9499 39.1713C50.1074 39.1713 49.4847 39.1897 49.0817 39.2265Z" fill="white"/>
<path d="M88.3584 39.5028L87.0946 39.2818C85.8857 39.0976 84.8784 38.8766 84.0725 38.6188C83.6329 38.582 83.2483 38.453 82.9186 38.232C82.6255 38.1215 82.4424 37.9742 82.3691 37.7901L81.1603 30.9392V30.663C81.1603 30.4052 81.1786 30.221 81.2152 30.1105C81.2885 29.9632 81.4167 29.8711 81.5998 29.8343C83.9809 30.7551 86.3253 31.2155 88.6331 31.2155C89.3657 31.2155 89.9335 31.2339 90.3365 31.2707C91.7285 31.2707 92.7358 31.0866 93.3586 30.7182C93.6883 30.4972 93.8531 30.1842 93.8531 29.779C93.8531 29.1897 93.6699 28.7109 93.3036 28.3425C92.9373 27.9374 92.4062 27.5875 91.7102 27.2928L89.9518 26.6298C89.439 26.5193 88.8529 26.3168 88.1935 26.0221C88.1935 25.9853 88.1752 25.9669 88.1386 25.9669C88.1019 25.93 88.0653 25.8748 88.0287 25.8011C87.8822 25.7643 87.5708 25.5801 87.0946 25.2486L86.7649 25.0829C86.8382 25.0829 86.8748 25.0645 86.8748 25.0276C86.8748 24.9908 86.8198 24.954 86.71 24.9171C86.6001 24.8435 86.3803 24.733 86.0506 24.5856C85.7575 24.4015 85.5011 24.1989 85.2813 23.9779C84.9516 23.7937 84.7868 23.5727 84.7868 23.3149V23.0387C83.871 23.0387 83.0834 22.081 82.424 20.1657C81.8746 18.2136 81.5998 16.8324 81.5998 16.0221C81.5998 12.5967 83.0651 9.96317 85.9956 8.12155C88.3767 6.61142 91.6552 5.59853 95.8312 5.08287C98.5419 4.78822 101.912 4.64089 105.942 4.64089C106.454 4.82505 106.857 4.93554 107.15 4.97238C107.81 5.00921 108.249 5.2302 108.469 5.63536C108.579 5.81952 108.671 6.18785 108.744 6.74033C108.854 7.32965 108.964 9.04236 109.074 11.8785C109.147 11.9521 109.183 12.0626 109.183 12.2099C109.183 12.5046 108.78 12.744 107.975 12.9282C107.095 13.0387 106.528 13.0939 106.271 13.0939L105.007 13.2597C103.579 13.4438 102.645 13.5727 102.205 13.6464C100.703 13.9042 99.6592 14.3646 99.0731 15.0276C98.7068 15.4696 98.5236 15.93 98.5236 16.4088C98.5236 16.6667 98.5603 16.8692 98.6335 17.0166C98.7068 17.1639 98.8899 17.3297 99.183 17.5138C99.5127 17.698 100.465 18.1584 102.04 18.895C103.725 19.6317 105.41 20.5893 107.095 21.768C108.524 22.7624 109.55 24.0884 110.172 25.7459C110.502 26.4457 110.667 27.3665 110.667 28.5083C110.667 29.5396 110.539 30.4236 110.282 31.1602C109.33 33.5912 107.535 35.5801 104.898 37.1271C103.652 37.8637 102.352 38.4346 100.996 38.8398C99.6409 39.2818 98.3405 39.5028 97.095 39.5028L89.0177 39.6685L88.3584 39.5028Z" fill="white"/>
<path d="M123.037 38.5635C122.707 38.0479 122.487 37.1087 122.377 35.7459C122.231 34.5304 122.157 32.7624 122.157 30.442L122.212 24.3646C122.249 22.8913 122.267 20.5525 122.267 17.3481L122.102 17.1823H116.663C115.857 17.1823 115.326 16.2615 115.069 14.4199C114.923 13.4254 114.849 11.9705 114.849 10.0553V9.33702C114.923 9.07919 114.959 8.67403 114.959 8.12155V7.01658L115.014 6.57459L115.234 6.35359L116.223 6.40884H117.322C118.934 6.40884 120.161 6.39042 121.004 6.35359H132.158C132.634 6.39042 133.312 6.40884 134.191 6.40884H135.565C135.711 6.33518 135.949 6.29834 136.279 6.29834C136.535 6.22468 136.773 6.18785 136.993 6.18785C137.689 6.18785 138.22 6.22468 138.587 6.29834C139.319 6.37201 139.869 6.40884 140.235 6.40884L141.664 6.35359H143.807C144.906 6.35359 145.657 6.37201 146.06 6.40884L146.829 6.46409C146.865 6.50092 146.92 6.55617 146.994 6.62983C147.067 6.66667 147.104 6.7035 147.104 6.74033V16.1326C147.104 16.3536 146.975 16.593 146.719 16.8508C146.499 17.1087 146.279 17.2744 146.06 17.3481C144.851 17.0902 143.276 16.9613 141.334 16.9613H139.246C138.697 16.9613 138.33 17.6611 138.147 19.0608C138.074 19.4659 138.037 20.0552 138.037 20.8287V22.4862C138.037 23.2228 138.056 23.7753 138.092 24.1436V25.6906C138.092 27.2007 138.019 28.6004 137.872 29.8895C137.799 30.8471 137.762 31.547 137.762 31.9889C137.689 32.4309 137.653 33.0387 137.653 33.8122C137.653 34.9171 137.616 35.8379 137.543 36.5746C137.506 37.7164 137.085 38.3241 136.279 38.3978C135.4 38.5083 134.887 38.5635 134.74 38.5635H123.037Z" fill="white"/>
<path d="M167.891 39.6685C165.034 39.6685 162.47 39.0055 160.199 37.6796C157.634 36.4273 155.528 34.3646 153.88 31.4917C152.048 28.2505 151.132 24.4199 151.132 20C151.132 16.8692 151.682 14.0516 152.781 11.547C153.88 9.04236 155.455 6.92449 157.506 5.19337C159.521 3.49908 161.884 2.20995 164.594 1.32597C167.305 0.44199 170.254 0 173.441 0C178.13 0 182.965 1.19705 187.947 3.59116L185.804 12.9834C185.548 12.9098 185.236 12.8177 184.87 12.7072C184.54 12.5967 184.156 12.4862 183.716 12.3757C181.701 11.86 180.218 11.5285 179.265 11.3812C178.386 11.2339 177.672 11.1602 177.122 11.1602C174.815 11.1602 173.056 11.7864 171.847 13.0387C170.419 14.4751 169.704 16.8877 169.704 20.2762C169.704 23.3702 170.162 25.5801 171.078 26.9061C171.847 28.1584 172.983 28.7845 174.485 28.7845C175.437 28.7845 176.536 28.5267 177.782 28.011C177.782 27.4217 177.745 26.5378 177.672 25.3591L177.617 24.1436C177.58 23.2965 177.562 22.0442 177.562 20.3867V18.895C177.562 18.5635 177.617 18.3425 177.727 18.232C177.837 18.0847 178.038 18.011 178.331 18.011C178.441 18.0479 178.753 18.0663 179.265 18.0663H185.09C186.811 18.0663 187.947 18.0479 188.497 18.011C189.486 18.011 190.127 18.0295 190.42 18.0663C190.896 18.1768 191.207 18.361 191.354 18.6188C191.537 18.8398 191.629 19.2081 191.629 19.7238C191.629 19.9079 191.647 20.0737 191.683 20.221V29.116C191.647 29.2634 191.61 29.4291 191.574 29.6133C191.537 29.7974 191.519 30 191.519 30.221V30.4972C191.519 32.8177 191.482 34.4383 191.409 35.3591C191.335 36.8692 191.207 37.8269 191.024 38.232C190.072 38.232 189.357 38.2689 188.881 38.3425L187.672 38.3978H187.507C187.178 38.3978 186.995 38.3794 186.958 38.3425C186.921 38.3057 186.885 38.2873 186.848 38.2873C186.848 38.2505 186.848 38.232 186.848 38.232H186.683C186.647 38.2689 186.61 38.3057 186.573 38.3425C186.573 38.3794 186.573 38.3978 186.573 38.3978H179.595C179.485 38.4346 179.339 38.453 179.155 38.453C179.009 38.453 178.881 38.3425 178.771 38.1215C178.514 37.4586 178.368 36.6667 178.331 35.7459C178.258 35.3039 178.185 34.6593 178.111 33.8122C177.782 35.6906 176.628 37.1455 174.65 38.1768C172.855 39.1713 170.602 39.6685 167.891 39.6685Z" fill="white"/>
<path d="M218.34 39.7238C213.981 39.7238 210.537 39.3738 208.01 38.674C204.493 37.7532 201.819 36.0405 199.987 33.5359C197.863 30.5525 196.8 26.4088 196.8 21.105C196.8 17.3112 197.222 14.0884 198.064 11.4365C198.907 8.78453 200.207 6.61142 201.965 4.91713C203.724 3.22284 205.977 1.98895 208.724 1.21547C211.508 0.405157 214.896 0 218.889 0C222.003 0 224.933 0.478822 227.681 1.43647C231.051 2.65193 233.67 4.51197 235.538 7.01658C237.846 10 239 13.9227 239 18.7845C239 24.4567 238.157 28.8766 236.472 32.0442C234.787 34.954 232.351 37.0166 229.164 38.232C226.564 39.2265 222.955 39.7238 218.34 39.7238ZM217.9 34.3646C218.34 34.3646 218.688 34.0884 218.944 33.5359C219.494 32.3573 219.878 30.4972 220.098 27.9558C220.318 25.6354 220.428 23.4438 220.428 21.3812V17.7901C220.428 16.1694 220.318 14.1989 220.098 11.8785C219.878 9.37385 219.494 7.47698 218.944 6.18785C218.651 5.5617 218.303 5.24862 217.9 5.24862C217.094 5.24862 216.508 6.0221 216.142 7.56906C215.776 9.70534 215.592 11.639 215.592 13.3702C215.483 14.8435 215.428 17.1455 215.428 20.2762C215.428 22.3757 215.483 24.1068 215.592 25.4696C215.592 27.2007 215.776 29.2081 216.142 31.4917C216.508 33.407 217.094 34.3646 217.9 34.3646Z" fill="white"/>
<path d="M1.78606 67.572H24.7461V69.476H1.78606V67.572ZM12.0341 68.72H14.3301V78.184H12.0341V68.72ZM4.69806 54.272H21.7781V64.156H4.69806V54.272ZM19.5101 56.148H6.99406V62.28H19.5101V56.148ZM33.7879 55.476H35.6919V57.52C35.6919 62.168 32.8919 66.032 28.6639 67.544L27.4319 65.724C31.2679 64.38 33.7879 61.132 33.7879 57.52V55.476ZM34.2079 55.476H36.1119V57.492C36.1119 60.852 38.5479 63.96 42.2719 65.22L41.0679 67.04C36.8959 65.584 34.2079 61.86 34.2079 57.492V55.476ZM28.1599 54.636H41.6839V56.54H28.1599V54.636ZM44.8759 52.872H47.1999V68.104H44.8759V52.872ZM46.5559 59.536H50.9519V61.468H46.5559V59.536ZM30.7639 69.448H47.1999V78.184H44.8759V71.38H30.7639V69.448ZM61.5897 54.048C65.3697 54.048 68.0577 56.148 68.0577 59.256C68.0577 62.336 65.3697 64.492 61.5897 64.492C57.8377 64.492 55.1497 62.336 55.1497 59.256C55.1497 56.148 57.8377 54.048 61.5897 54.048ZM61.5897 55.98C59.1257 55.98 57.3617 57.324 57.3617 59.256C57.3617 61.216 59.1257 62.532 61.5897 62.532C64.0537 62.532 65.8177 61.216 65.8177 59.256C65.8177 57.324 64.0537 55.98 61.5897 55.98ZM60.5537 67.292H62.8777V77.4H60.5537V67.292ZM71.7537 52.872H74.0497V78.212H71.7537V52.872ZM53.5817 68.552L53.2737 66.592C57.9777 66.592 64.3897 66.536 69.9617 65.696L70.1297 67.432C64.4177 68.468 58.2017 68.552 53.5817 68.552ZM87.3768 54.832H98.5768V56.736H87.3768V54.832ZM91.1848 60.488H93.4808V66.816H91.1848V60.488ZM97.6528 54.832H99.9488V56.176C99.9488 57.828 99.9488 60.348 99.2768 63.68L97.0088 63.428C97.6528 60.096 97.6528 57.8 97.6528 56.176V54.832ZM103.393 52.872H105.717V71.94H103.393V52.872ZM104.653 61.104H109.329V63.036H104.653V61.104ZM89.7288 75.72H106.529V77.624H89.7288V75.72ZM89.7288 70.176H92.0248V76.308H89.7288V70.176ZM86.0888 67.908L85.8368 66.004C90.3448 66.004 96.5608 65.892 101.685 65.192L101.853 66.872C96.5888 67.796 90.5408 67.908 86.0888 67.908ZM113.135 54.44H124.335V56.344H113.135V54.44ZM116.943 59.928H119.239V65.976H116.943V59.928ZM123.411 54.44H125.679V55.812C125.679 57.408 125.679 59.676 125.035 62.672L122.767 62.476C123.411 59.508 123.411 57.408 123.411 55.812V54.44ZM129.151 52.872H131.475V68.664H129.151V52.872ZM130.411 59.76H135.087V61.72H130.411V59.76ZM111.875 66.928L111.595 64.996C116.187 64.996 122.319 64.912 127.443 64.24L127.611 65.948C122.375 66.816 116.383 66.928 111.875 66.928ZM123.299 68.972C128.507 68.972 131.727 70.652 131.727 73.536C131.727 76.448 128.507 78.128 123.299 78.128C118.091 78.128 114.927 76.448 114.927 73.536C114.927 70.652 118.091 68.972 123.299 68.972ZM123.299 70.792C119.547 70.792 117.251 71.8 117.251 73.536C117.251 75.272 119.547 76.28 123.299 76.28C127.079 76.28 129.347 75.272 129.347 73.536C129.347 71.8 127.079 70.792 123.299 70.792ZM144.24 56.484H146.116V60.6C146.116 65.948 142.896 71.324 138.864 73.312L137.52 71.464C141.188 69.728 144.24 64.968 144.24 60.6V56.484ZM144.688 56.484H146.564V60.6C146.564 64.884 149.616 69.252 153.34 70.848L152.024 72.696C147.936 70.792 144.688 65.864 144.688 60.6V56.484ZM138.36 55.448H152.5V57.408H138.36V55.448ZM155.916 52.872H158.24V78.184H155.916V52.872ZM180.528 68.972H182.824V78.212H180.528V68.972ZM170.252 68.16H193.128V70.092H170.252V68.16ZM180.5 57.212H182.544V57.856C182.544 62.224 177.812 65.444 172.492 66.256L171.68 64.408C176.244 63.792 180.5 61.02 180.5 57.856V57.212ZM180.808 57.212H182.824V57.856C182.824 60.992 187.108 63.792 191.644 64.408L190.804 66.256C185.512 65.472 180.808 62.168 180.808 57.856V57.212ZM172.464 55.98H190.916V57.884H172.464V55.98ZM180.528 52.872H182.824V56.652H180.528V52.872ZM202.309 57.632H204.213V58.892C204.213 63.456 201.441 67.208 197.213 68.692L196.065 66.872C199.817 65.584 202.309 62.448 202.309 58.892V57.632ZM202.701 57.632H204.633V58.892C204.633 62.252 207.209 65.22 210.961 66.396L209.813 68.244C205.585 66.844 202.701 63.26 202.701 58.892V57.632ZM196.709 56.26H210.205V58.136H196.709V56.26ZM202.309 53.04H204.633V56.96H202.309V53.04ZM209.365 60.656H215.749V62.588H209.365V60.656ZM214.489 52.9H216.813V71.772H214.489V52.9ZM200.657 75.72H217.513V77.624H200.657V75.72ZM200.657 70.092H202.981V76.756H200.657V70.092ZM241.341 61.44H248.397V63.344H241.341V61.44ZM235.237 55.056H237.141V59.564C237.141 65.248 234.145 70.68 230.141 72.836L228.657 70.988C232.381 69.14 235.237 64.268 235.237 59.564V55.056ZM235.685 55.056H237.561V59.564C237.561 64.184 240.417 68.776 244.085 70.512L242.713 72.388C238.625 70.316 235.685 65.108 235.685 59.564V55.056ZM247.249 52.844H249.545V78.212H247.249V52.844ZM272.838 52.844H275.162V78.212H272.838V52.844ZM255.898 55H258.194V61.692H265.502V55H267.826V72.108H255.898V55ZM258.194 63.54V70.204H265.502V63.54H258.194ZM290.364 54.608H292.38V56.54C292.38 62.056 287.256 66.34 282.188 67.488L281.152 65.556C285.604 64.716 290.364 60.852 290.364 56.54V54.608ZM290.784 54.608H292.8V56.54C292.8 60.88 297.588 64.716 302.012 65.556L300.976 67.488C295.936 66.34 290.784 62.084 290.784 56.54V54.608ZM280.228 72.864H303.16V74.768H280.228V72.864Z" fill="white"/>
</svg>
