<svg width="28" height="21" viewBox="0 0 28 21" fill="none" xmlns="http://www.w3.org/2000/svg">
<path d="M13.8333 6.5C12.8568 6.5 11.9203 6.92143 11.2298 7.67158C10.5393 8.42172 10.1514 9.43914 10.1514 10.5C10.1514 11.5609 10.5393 12.5783 11.2298 13.3284C11.9203 14.0786 12.8568 14.5 13.8333 14.5C14.8097 14.5 15.7462 14.0786 16.4367 13.3284C17.1272 12.5783 17.5151 11.5609 17.5151 10.5C17.5151 9.43914 17.1272 8.42172 16.4367 7.67158C15.7462 6.92143 14.8097 6.5 13.8333 6.5ZM13.8333 17.1667C12.2058 17.1667 10.645 16.4643 9.49419 15.214C8.3434 13.9638 7.69689 12.2681 7.69689 10.5C7.69689 8.73189 8.3434 7.0362 9.49419 5.78596C10.645 4.53572 12.2058 3.83334 13.8333 3.83334C15.4607 3.83334 17.0215 4.53572 18.1723 5.78596C19.3231 7.0362 19.9696 8.73189 19.9696 10.5C19.9696 12.2681 19.3231 13.9638 18.1723 15.214C17.0215 16.4643 15.4607 17.1667 13.8333 17.1667ZM13.8333 0.500004C7.69689 0.500004 2.45643 4.64667 0.333252 10.5C2.45643 16.3533 7.69689 20.5 13.8333 20.5C19.9696 20.5 25.2101 16.3533 27.3333 10.5C25.2101 4.64667 19.9696 0.500004 13.8333 0.500004Z" fill="black"/>
</svg>
